<svg width="32" height="32" viewBox="0 0 32 32" xmlns="http://www.w3.org/2000/svg">
  <circle cx="22" cy="12" r="3.4" fill="#FFFFFF"/>
  <path d="M16 4C9.37258 4 4 9.37258 4 16C4 18.7512 4.91555 21.2869 6.46023 23.347L5.96873 27.7576C5.8742 28.6007 6.71432 29.2459 7.50585 28.948L11.7252 27.3462C12.9969 27.7831 14.468 28 16 28C22.6274 28 28 22.6274 28 16C28 9.37258 22.6274 4 16 4ZM16 7.2C20.854 7.2 24.8 11.146 24.8 16C24.8 20.854 20.854 24.8 16 24.8C14.7813 24.8 13.6255 24.5662 12.5747 24.1444C12.2573 24.0179 11.9033 24.0166 11.5848 24.1403L8.71643 25.2558L9.00016 22.7228C9.04932 22.2857 8.91348 21.8465 8.62652 21.5218C7.29609 19.9982 6.4 18.0963 6.4 16C6.4 11.146 10.346 7.2 15.2 7.2H16Z" fill="#FFFFFF"/>
</svg>
